<svg xmlns="http://www.w3.org/2000/svg" xmlns:xlink="http://www.w3.org/1999/xlink"><defs><style>
    .sprite-symbol-usage {display: none;}
    .sprite-symbol-usage:target {display: inline;}
  </style><symbol viewBox="0 0 24 24" id="burger"><path fill-rule="evenodd" clip-rule="evenodd" d="M2.25 6A.75.75 0 0 1 3 5.25h18a.75.75 0 0 1 0 1.5H3A.75.75 0 0 1 2.25 6ZM2.25 12a.75.75 0 0 1 .75-.75h18a.75.75 0 0 1 0 1.5H3a.75.75 0 0 1-.75-.75ZM2.25 18a.75.75 0 0 1 .75-.75h18a.75.75 0 0 1 0 1.5H3a.75.75 0 0 1-.75-.75Z" fill="#FFF" /></symbol><symbol fill="none" viewBox="0 0 32 32" id="calendar"><path d="M7.11 14.4h3.555v3.2H7.109v-3.2Zm0 6.4h3.555V24H7.109v-3.2Zm7.11-6.4h3.556v3.2H14.22v-3.2Zm0 6.4h3.556V24H14.22v-3.2Zm7.112-6.4h3.555v3.2h-3.555v-3.2Zm0 6.4h3.555V24h-3.555v-3.2Z" fill="#1C1C1E" /><path d="M3.556 32h24.888C30.405 32 32 30.565 32 28.8V6.4c0-1.765-1.595-3.2-3.556-3.2H24.89V0h-3.556v3.2H10.667V0H7.11v3.2H3.556C1.595 3.2 0 4.635 0 6.4v22.4C0 30.565 1.595 32 3.556 32ZM28.444 9.6l.002 19.2H3.556V9.6h24.888Z" fill="#1C1C1E" /></symbol><symbol fill="none" viewBox="0 0 32 32" id="exit"><path fill-rule="evenodd" clip-rule="evenodd" d="M2.461 0A2.461 2.461 0 0 0 0 2.462v27.076A2.461 2.461 0 0 0 2.461 32h18.46a1.23 1.23 0 0 0 0-2.462H2.462V2.462h18.46a1.23 1.23 0 0 0 0-2.462H2.462Zm23.64 9.59a1.232 1.232 0 0 0-1.743 1.743l3.438 3.436h-16.72a1.23 1.23 0 0 0 0 2.462h16.72l-3.438 3.436A1.232 1.232 0 0 0 26.1 22.41l5.538-5.539a1.229 1.229 0 0 0 0-1.742L26.1 9.59Z" fill="#000" /></symbol><symbol fill="none" viewBox="0 0 32 32" id="finance"><path d="M24 0H8a3.21 3.21 0 0 0-3.2 3.2v3.2c0 1.76 1.44 3.2 3.2 3.2h16c1.76 0 3.2-1.44 3.2-3.2V3.2C27.2 1.44 25.76 0 24 0Zm0 6.4H8V3.2h16v3.2ZM28.8 32H3.2A3.21 3.21 0 0 1 0 28.8v-1.6h32v1.6c0 1.76-1.44 3.2-3.2 3.2Zm-2.352-18.896A3.213 3.213 0 0 0 23.52 11.2H8.48a3.214 3.214 0 0 0-2.928 1.904L0 25.6h32l-5.552-12.496ZM12 22.4h-1.6a.792.792 0 0 1-.8-.8c0-.448.352-.8.8-.8H12c.448 0 .8.352.8.8 0 .448-.352.8-.8.8Zm0-3.2h-1.6a.792.792 0 0 1-.8-.8c0-.448.352-.8.8-.8H12c.448 0 .8.352.8.8 0 .448-.352.8-.8.8Zm0-3.2h-1.6a.792.792 0 0 1-.8-.8c0-.448.352-.8.8-.8H12c.448 0 .8.352.8.8 0 .448-.352.8-.8.8Zm4.8 6.4h-1.6a.792.792 0 0 1-.8-.8c0-.448.352-.8.8-.8h1.6c.448 0 .8.352.8.8 0 .448-.352.8-.8.8Zm0-3.2h-1.6a.792.792 0 0 1-.8-.8c0-.448.352-.8.8-.8h1.6c.448 0 .8.352.8.8 0 .448-.352.8-.8.8Zm0-3.2h-1.6a.792.792 0 0 1-.8-.8c0-.448.352-.8.8-.8h1.6c.448 0 .8.352.8.8 0 .448-.352.8-.8.8Zm4.8 6.4H20a.792.792 0 0 1-.8-.8c0-.448.352-.8.8-.8h1.6c.448 0 .8.352.8.8 0 .448-.352.8-.8.8Zm0-3.2H20a.792.792 0 0 1-.8-.8c0-.448.352-.8.8-.8h1.6c.448 0 .8.352.8.8 0 .448-.352.8-.8.8Zm0-3.2H20a.792.792 0 0 1-.8-.8c0-.448.352-.8.8-.8h1.6c.448 0 .8.352.8.8 0 .448-.352.8-.8.8Z" fill="#1C1C1E" /></symbol><symbol fill="none" viewBox="0 0 48 48" id="icperson"><path d="M24 22.449a5.724 5.724 0 1 0 0-11.45 5.724 5.724 0 0 0 0 11.45Z" stroke="#fff" stroke-width="2" /><path d="M29.724 24.739h.404a3.435 3.435 0 0 1 3.407 3.009l.447 3.576a2.29 2.29 0 0 1-2.272 2.574H16.29a2.293 2.293 0 0 1-2.188-1.614 2.29 2.29 0 0 1-.084-.96l.446-3.576a3.434 3.434 0 0 1 3.41-3.009h.402" stroke="#fff" stroke-width="2" stroke-linecap="round" stroke-linejoin="round" /><circle cx="24" cy="24" r="23" stroke="#fff" stroke-width="2" /></symbol><symbol fill="none" viewBox="0 0 32 32" id="main"><path d="M31.002 16.995a1.002 1.002 0 0 1-.711-.29L15.972 2.401 1.654 16.705A1.003 1.003 0 0 1 0 15.985a1 1 0 0 1 .24-.69L15.27.291a1.003 1.003 0 0 1 1.413 0l15.03 15.004a1 1 0 0 1-.712 1.7Z" fill="#1C1C1E" /><path d="M15.973 5.783 3.95 17.826V30a1.999 1.999 0 0 0 2.004 2h7.014V21.997h6.012V32h7.014a2.006 2.006 0 0 0 2.004-2V17.756L15.973 5.783Z" fill="#1C1C1E" /></symbol><symbol fill="none" viewBox="0 0 25 32" id="maps"><path d="M12.442 32a52.929 52.929 0 0 1-6.221-6.276C3.377 22.327 0 17.269 0 12.448a12.442 12.442 0 0 1 21.244-8.8 12.364 12.364 0 0 1 3.64 8.8c0 4.82-3.377 9.88-6.221 13.276A52.93 52.93 0 0 1 12.442 32Zm0-24.884a5.332 5.332 0 1 0 0 10.665 5.332 5.332 0 0 0 0-10.665Z" fill="#1C1C1E" /></symbol><symbol fill="none" viewBox="0 0 30 35" id="profileic"><path d="M14.999 17.029a8.014 8.014 0 1 0 0-16.029 8.014 8.014 0 0 0 0 16.029Z" stroke="#1C1C1E" stroke-width="2" /><path d="M23.014 20.234h.564a4.808 4.808 0 0 1 4.77 4.212l.627 5.008a3.208 3.208 0 0 1-3.181 3.603H4.206a3.205 3.205 0 0 1-3.181-3.603l.625-5.008a4.809 4.809 0 0 1 4.773-4.212h.563" stroke="#1C1C1E" stroke-width="2" stroke-linecap="round" stroke-linejoin="round" /></symbol><symbol fill="none" viewBox="0 0 32 32" id="search"><path d="M31.904 29.7 21.516 19.312A11.892 11.892 0 0 0 24 12c0-3.208-1.252-6.216-3.516-8.484A11.912 11.912 0 0 0 12 0C8.796 0 5.78 1.252 3.516 3.516A11.905 11.905 0 0 0 0 12c0 3.204 1.252 6.22 3.516 8.484A11.905 11.905 0 0 0 12 24c2.68 0 5.224-.872 7.308-2.48l10.388 10.384a.328.328 0 0 0 .464 0l1.744-1.74a.33.33 0 0 0 0-.464ZM18.336 18.336A8.912 8.912 0 0 1 12 20.96a8.912 8.912 0 0 1-6.336-2.624A8.912 8.912 0 0 1 3.04 12c0-2.392.932-4.644 2.624-6.336A8.912 8.912 0 0 1 12 3.04c2.392 0 4.644.928 6.336 2.624A8.912 8.912 0 0 1 20.96 12a8.905 8.905 0 0 1-2.624 6.336Z" fill="#000" /></symbol><symbol fill="none" viewBox="0 0 32 32" id="searchw"><path d="M31.904 29.7 21.516 19.312A11.892 11.892 0 0 0 24 12c0-3.208-1.252-6.216-3.516-8.484A11.912 11.912 0 0 0 12 0C8.796 0 5.78 1.252 3.516 3.516A11.905 11.905 0 0 0 0 12c0 3.204 1.252 6.22 3.516 8.484A11.905 11.905 0 0 0 12 24c2.68 0 5.224-.872 7.308-2.48l10.388 10.384a.328.328 0 0 0 .464 0l1.744-1.74a.33.33 0 0 0 0-.464ZM18.336 18.336A8.912 8.912 0 0 1 12 20.96a8.912 8.912 0 0 1-6.336-2.624A8.912 8.912 0 0 1 3.04 12c0-2.392.932-4.644 2.624-6.336A8.912 8.912 0 0 1 12 3.04c2.392 0 4.644.928 6.336 2.624A8.912 8.912 0 0 1 20.96 12a8.905 8.905 0 0 1-2.624 6.336Z" fill="#fff" /></symbol><symbol fill="none" viewBox="0 0 32 34" id="sett"><path d="M19.003 34H13c-.376 0-.741-.132-1.034-.375a1.709 1.709 0 0 1-.577-.961l-.672-3.203a13.106 13.106 0 0 1-2.531-1.508l-3.03.995a1.603 1.603 0 0 1-1.096-.035c-.351-.14-.645-.4-.833-.736L.219 22.822a1.755 1.755 0 0 1-.199-1.11c.058-.383.24-.734.517-.996l2.35-2.21a14.19 14.19 0 0 1 0-3.013l-2.35-2.205a1.727 1.727 0 0 1-.517-.996 1.755 1.755 0 0 1 .199-1.112L3.22 5.82c.188-.336.482-.596.833-.736s.738-.152 1.097-.034l3.03.994c.402-.306.82-.591 1.253-.85.417-.24.846-.46 1.284-.656l.673-3.2c.08-.378.284-.717.576-.96A1.619 1.619 0 0 1 13 0h6.003c.376 0 .74.133 1.033.377.293.243.496.582.576.96l.68 3.202c.895.404 1.743.91 2.53 1.508l3.031-.995a1.603 1.603 0 0 1 1.096.035c.35.14.644.4.832.736l3.002 5.36a1.75 1.75 0 0 1-.319 2.106l-2.35 2.21a14.201 14.201 0 0 1 0 3.012l2.35 2.21c.57.54.701 1.415.319 2.107l-3.002 5.36a1.664 1.664 0 0 1-.833.736c-.351.14-.738.152-1.097.034l-3.03-.995a13.067 13.067 0 0 1-2.53 1.506l-.678 3.195c-.081.378-.284.717-.577.96a1.619 1.619 0 0 1-1.033.376ZM8.778 24.19l1.352 1.02c.305.23.622.443.952.637.31.185.627.352.955.503l1.538.695.754 3.555h3.348l.754-3.556 1.538-.696c.671-.306 1.31-.685 1.902-1.132l1.352-1.02 3.368 1.105 1.674-2.988-2.61-2.454.184-1.72c.082-.753.082-1.513 0-2.264l-.185-1.72 2.612-2.459-1.675-2.99-3.366 1.105-1.354-1.02c-.593-.45-1.23-.832-1.902-1.141l-1.538-.695-.754-3.555h-3.348l-.759 3.556-1.533.694a9.845 9.845 0 0 0-1.902 1.132l-1.354 1.02-3.364-1.105-1.677 2.999 2.61 2.45-.184 1.722a10.395 10.395 0 0 0 0 2.264l.184 1.72-2.61 2.454 1.674 2.988 3.364-1.105Zm7.217-.39a6.498 6.498 0 0 1-4.665-1.992A6.908 6.908 0 0 1 9.398 17c0-1.803.695-3.533 1.932-4.808a6.498 6.498 0 0 1 4.665-1.992c1.75 0 3.427.716 4.664 1.992A6.908 6.908 0 0 1 22.592 17a6.908 6.908 0 0 1-1.933 4.808 6.498 6.498 0 0 1-4.664 1.992Zm0-10.2c-.646 0-1.278.197-1.816.564-.54.367-.961.89-1.215 1.502a3.497 3.497 0 0 0-.211 1.943c.116.655.415 1.26.862 1.742.447.48 1.02.816 1.65.964.63.148 1.288.102 1.892-.132a3.31 3.31 0 0 0 1.51-1.185c.38-.538.597-1.18.626-1.845v.68V17c0-.902-.347-1.767-.966-2.404a3.25 3.25 0 0 0-2.332-.996Z" fill="#1C1C1E" /></symbol><symbol fill="none" viewBox="0 0 32 32" id="table"><path d="M2.462 0C1.795 0 1.218.244.73.73.244 1.219 0 1.796 0 2.463v9.846c0 .666.244 1.243.73 1.73.488.488 1.065.731 1.732.731h9.846c.666 0 1.243-.243 1.73-.73.488-.488.731-1.065.731-1.731V2.462c0-.667-.243-1.244-.73-1.731C13.55.244 12.974 0 12.308 0H2.462Zm0 2.462h9.846v9.846H2.462V2.462ZM19.692 0c-.666 0-1.243.244-1.73.73-.488.488-.731 1.065-.731 1.732v9.846c0 .666.243 1.243.73 1.73.488.488 1.065.731 1.731.731h9.846c.667 0 1.244-.243 1.731-.73.487-.488.731-1.065.731-1.731V2.462c0-.667-.244-1.244-.73-1.731C30.781.244 30.204 0 29.537 0h-9.846ZM2.462 17.23c-.667 0-1.244.244-1.731.732-.487.487-.731 1.064-.731 1.73v9.846c0 .667.244 1.244.73 1.731.488.487 1.065.731 1.732.731h9.846c.666 0 1.243-.244 1.73-.73.488-.488.731-1.065.731-1.732v-9.846c0-.666-.243-1.243-.73-1.73-.488-.488-1.065-.731-1.731-.731H2.462Zm0 2.462h9.846v9.846H2.462v-9.846Zm17.23-2.461c-.666 0-1.243.243-1.73.73-.488.488-.731 1.065-.731 1.731v9.846c0 .667.243 1.244.73 1.731.488.487 1.065.731 1.731.731h9.846c.667 0 1.244-.244 1.731-.73.487-.488.731-1.065.731-1.732v-9.846c0-.666-.244-1.243-.73-1.73-.488-.488-1.065-.731-1.732-.731h-9.846Zm0 2.461h9.846v9.846h-9.846v-9.846Z" fill="#1C1C1E" /></symbol><symbol fill="none" viewBox="0 0 13 12" id="triangle"><path d="M6.067.75a.5.5 0 0 1 .866 0l5.63 9.75a.5.5 0 0 1-.434.75H.871a.5.5 0 0 1-.433-.75L6.067.75Z" fill="#A8A8A8" /></symbol><symbol fill="none" viewBox="0 0 32 30" id="widget"><path d="M28.8 5.945h-8.938l3.67-3.677L21.268 0 16 5.28 10.731 0 8.47 2.268l3.669 3.677H3.2A3.207 3.207 0 0 0 0 9.152v17.64A3.207 3.207 0 0 0 3.2 30h25.6c1.765 0 3.2-1.439 3.2-3.207V9.153a3.207 3.207 0 0 0-3.2-3.208ZM3.2 26.793V9.153h25.6l.003 17.64H3.2Z" fill="#1C1C1E" /></symbol><symbol fill="none" viewBox="0 0 48 48" id="wrench"><path d="M39.364.772c-4.616-1.66-9.98-.643-13.678 3.056-3.698 3.699-4.716 9.062-3.056 13.678L0 40.136 7.864 48l22.63-22.63c4.616 1.66 9.98.642 13.678-3.056 3.699-3.699 4.717-9.062 3.056-13.678l-7.958 7.958L33.6 14.4 31.406 8.73 39.364.772ZM9.447 38.552a2.31 2.31 0 1 1-3.268 3.269 2.31 2.31 0 0 1 3.268-3.268Z" fill="#fff" /></symbol></defs><use id="burger-usage" xlink:href="#burger" class="sprite-symbol-usage" /><use id="calendar-usage" xlink:href="#calendar" class="sprite-symbol-usage" /><use id="exit-usage" xlink:href="#exit" class="sprite-symbol-usage" /><use id="finance-usage" xlink:href="#finance" class="sprite-symbol-usage" /><use id="icperson-usage" xlink:href="#icperson" class="sprite-symbol-usage" /><use id="main-usage" xlink:href="#main" class="sprite-symbol-usage" /><use id="maps-usage" xlink:href="#maps" class="sprite-symbol-usage" /><use id="profileic-usage" xlink:href="#profileic" class="sprite-symbol-usage" /><use id="search-usage" xlink:href="#search" class="sprite-symbol-usage" /><use id="searchw-usage" xlink:href="#searchw" class="sprite-symbol-usage" /><use id="sett-usage" xlink:href="#sett" class="sprite-symbol-usage" /><use id="table-usage" xlink:href="#table" class="sprite-symbol-usage" /><use id="triangle-usage" xlink:href="#triangle" class="sprite-symbol-usage" /><use id="widget-usage" xlink:href="#widget" class="sprite-symbol-usage" /><use id="wrench-usage" xlink:href="#wrench" class="sprite-symbol-usage" /></svg>